<svg width="51" height="59" viewBox="0 0 51 59" fill="none" xmlns="http://www.w3.org/2000/svg">
<path d="M50.9162 37.0417C50.8113 36.8233 50.6184 36.6579 50.3836 36.5852C49.9839 36.4614 40.5238 33.5886 34.1951 36.5011C30.3315 38.2793 28.7538 43.3082 29.2163 46.0073C28.1994 46.7061 27.33 47.356 26.6283 47.9073C26.9491 46.3734 27.255 44.697 27.5214 42.8927C28.0107 39.5791 28.3016 36.2521 28.3959 32.9454C28.4756 32.573 29.0743 30.1001 31.2655 27.7905C31.8356 28.2601 32.5945 28.6834 33.4386 28.9816C34.2727 29.2763 35.1049 29.4233 35.8995 29.4233C36.7386 29.4233 37.5356 29.2592 38.2477 28.9315C42.5924 26.932 45.1688 20.8216 45.2764 20.5625C45.3692 20.339 45.3622 20.0878 45.2576 19.8695C45.1528 19.6511 44.9598 19.4856 44.725 19.4129C44.4528 19.3287 38.0054 17.3711 33.6611 19.3704C30.713 20.7273 29.7378 24.5314 30.227 26.3436C29.478 27.0873 28.8806 27.8523 28.4054 28.5828C28.3876 27.8632 28.3608 27.145 28.3239 26.4291C28.1282 22.6385 27.6615 18.8996 26.9305 15.2441C28.5952 14.1788 30.5298 11.2667 29.7695 8.42678C28.5516 3.87905 22.8851 0.286845 22.6445 0.136118C22.4368 0.00624848 22.183 -0.0329313 21.9454 0.0282583C21.7072 0.0894478 21.5059 0.24536 21.3902 0.458314C21.256 0.705261 18.1189 6.55895 19.3367 11.1067C20.0963 13.9431 23.2343 15.55 25.2189 15.6816C25.8877 19.0514 26.3255 22.4944 26.5297 25.9837C25.8461 25.0404 25.1194 24.2017 24.3871 23.461C24.9572 21.6195 24.3903 18.008 21.7653 16.3852C17.7059 13.8759 11.0615 15.0393 10.7807 15.09C10.5384 15.1338 10.326 15.2747 10.1946 15.4787C10.0631 15.6828 10.0248 15.9312 10.0887 16.1641C10.1628 16.4343 11.9497 22.8094 16.009 25.3187C16.9625 25.9082 18.0409 26.1446 19.0979 26.1446C20.7384 26.1444 22.3254 25.5743 23.3093 24.8705C24.5252 26.1305 25.7126 27.6813 26.659 29.5553C26.7049 33.0773 26.5168 36.6372 26.0987 40.1921C25.6691 39.5806 25.1498 39.002 24.5427 38.4569C24.9762 35.6715 22.4332 29.947 17.7319 28.5836C14.6761 27.6975 10.8387 27.8817 6.32583 29.1311C3.00878 30.0494 0.593758 31.2063 0.492578 31.2552C0.27163 31.3618 0.106213 31.5539 0.0363279 31.7852C-0.0336745 32.0164 -0.00155613 32.2658 0.124448 32.4731C0.182215 32.568 1.56485 34.8262 3.83693 37.3654C6.92786 40.8199 10.0447 43.0207 13.1002 43.9068C13.8703 44.1301 14.6286 44.2217 15.3553 44.2216C17.4687 44.2215 19.3107 43.4463 20.3696 42.8831C21.788 42.1285 23.0117 41.12 23.761 40.1335C24.6679 41.0492 25.3468 42.12 25.6643 43.3696C25.2814 45.8082 24.8133 48.0642 24.3309 50.0518C24.3279 50.0641 24.3247 50.0764 24.3221 50.0887C23.4268 53.7703 22.4844 56.5263 21.9508 57.8087C21.7666 58.2506 21.983 58.7551 22.4341 58.9356C22.5433 58.9793 22.6563 59 22.7673 59C23.1152 59 23.445 58.7972 23.5845 58.4622C23.6552 58.2927 24.819 55.4682 25.9911 50.7086C26.4806 50.2735 27.8769 49.0744 29.9665 47.621C31.2724 49.1534 34.3136 50.677 37.3812 50.677C38.5013 50.677 39.625 50.4737 40.6682 49.9936C46.9969 47.0811 50.7773 38.1147 50.9352 37.7344C51.0278 37.5113 51.0209 37.2601 50.9162 37.0417ZM34.4115 20.9349C35.5987 20.3886 37.0189 20.2023 38.4046 20.2023C40.307 20.2023 42.1439 20.5536 43.2208 20.8069C42.3768 22.4899 40.3143 26.0708 37.4972 27.3672C36.202 27.9632 34.7737 27.6159 34.0374 27.3557C33.4295 27.1409 32.9327 26.8626 32.5742 26.6016C32.8943 26.3508 33.2357 26.1069 33.6044 25.8746C34.0142 25.6163 34.1327 25.0815 33.869 24.6802C33.6053 24.2787 33.0592 24.1629 32.6494 24.421C32.3824 24.5892 32.1276 24.7624 31.8833 24.9392C32.0248 23.6421 32.793 21.6798 34.4115 20.9349ZM17.0077 20.3688C17.0467 20.3846 19.426 21.37 22.0242 23.6464C20.9044 24.2935 18.5837 24.8667 16.9507 23.8573C14.3186 22.2303 12.7229 18.4272 12.0973 16.6552C13.9999 16.4457 18.1912 16.2201 20.8233 17.8471C22.2965 18.7578 22.824 20.7185 22.829 22.0249C20.1905 19.8088 17.8474 18.8382 17.6815 18.7712C17.2311 18.589 16.7151 18.7989 16.5291 19.24C16.343 19.6812 16.5574 20.1866 17.0077 20.3688ZM26.525 13.3529C26.0183 11.1189 25.4139 8.91791 24.7082 6.75899C24.5595 6.30439 24.0627 6.05376 23.5989 6.19941C23.1348 6.34496 22.879 6.83148 23.0276 7.28608C23.7342 9.44822 24.3374 11.6539 24.84 13.8937C23.5656 13.5963 21.5261 12.4698 21.0437 10.6682C20.2541 7.71947 21.7384 3.8734 22.5161 2.16021C24.0526 3.27902 27.2728 5.91651 28.0623 8.86525C28.5193 10.5718 27.4555 12.4215 26.525 13.3529ZM12.9863 35.3789C15.6794 35.9037 19.615 36.9674 22.4256 39C21.9117 39.7218 20.8896 40.6398 19.5272 41.3645C18.3442 41.9938 16.0015 42.946 13.601 42.2497C8.24366 40.6963 3.69351 34.6255 2.17734 32.4062C4.68143 31.352 11.8656 28.6856 17.2308 30.2415C19.6309 30.9375 21.0672 32.9853 21.7096 34.144C22.3078 35.2227 22.6485 36.2878 22.7733 37.1216C22.4094 36.8886 22.0255 36.6636 21.6215 36.4468C19.3933 35.2511 16.6038 34.3214 13.3304 33.6835C12.8524 33.5903 12.3878 33.8944 12.293 34.3626C12.1978 34.8308 12.5083 35.2858 12.9863 35.3789ZM39.9176 48.4295C39.1155 48.7987 38.2483 48.9519 37.3801 48.9519C34.8899 48.9518 32.3951 47.6907 31.4235 46.644C34.4968 44.6563 38.6465 42.431 43.4097 41.0681C43.8775 40.9342 44.1458 40.4544 44.0092 39.9962C43.8726 39.538 43.3826 39.2752 42.9147 39.409C38.15 40.7723 34.0205 42.9233 30.8917 44.9024C30.942 42.8178 32.1871 39.3353 34.9457 38.0657C36.778 37.2224 38.9627 36.9357 41.0872 36.9357C44.3063 36.9357 47.3877 37.5944 48.8935 37.9733C47.7939 40.2591 44.5336 46.3052 39.9176 48.4295Z" fill="#8DC73F"/>
<path d="M9.4943 33.112C8.86298 33.0475 8.49144 33.0259 8.47591 33.025C7.98966 32.9969 7.57223 33.3607 7.54364 33.837C7.51517 34.3134 7.88624 34.7224 8.37261 34.7505C8.37602 34.7506 8.72415 34.7711 9.31123 34.8311C9.34241 34.8343 9.37323 34.8358 9.40382 34.8358C9.85007 34.8358 10.2331 34.5054 10.2804 34.0611C10.3309 33.5865 9.9789 33.1615 9.4943 33.112Z" fill="#8DC73F"/>
<path d="M38.3168 23.0804C38.1911 22.6192 37.7076 22.345 37.2366 22.4682C36.8716 22.5636 36.5092 22.6702 36.1595 22.7851C35.6975 22.9369 35.4486 23.4267 35.6035 23.8794C35.7273 24.2409 36.0712 24.4692 36.4399 24.4692C36.5329 24.4692 36.6276 24.4546 36.7206 24.4241C37.0356 24.3206 37.3623 24.2245 37.6918 24.1383C38.1627 24.0153 38.4424 23.5415 38.3168 23.0804Z" fill="#8DC73F"/>
</svg>
