<svg width="40" height="45" viewBox="0 0 40 45" fill="none" xmlns="http://www.w3.org/2000/svg">
<path d="M39.8813 38.9059L33.5629 28.0561C34.691 27.2718 35.3829 25.9864 35.3831 24.5786C35.3832 23.9127 35.6448 23.2865 36.1197 22.8155C37.3502 21.5953 37.7151 19.7769 37.0492 18.1826C36.7922 17.5674 36.7922 16.8897 37.0492 16.2744C37.7151 14.6803 37.3503 12.8618 36.1197 11.6416C35.6448 11.1706 35.3832 10.5445 35.3831 9.87846C35.3829 8.15308 34.344 6.61139 32.7362 5.9509C32.1156 5.69601 31.6323 5.21674 31.3751 4.6016C30.709 3.00753 29.1541 1.97754 27.4137 1.97727C26.742 1.97718 26.1104 1.71791 25.6353 1.2469C24.4045 0.0272429 22.5702 -0.334603 20.9624 0.325632C20.3417 0.580339 19.6581 0.580339 19.0376 0.325632C17.4298 -0.334339 15.5956 0.0271549 14.3647 1.24716C13.8897 1.71799 13.2581 1.97736 12.5863 1.97745C10.846 1.97771 9.29099 3.00779 8.62487 4.60169C8.36769 5.21692 7.88437 5.6961 7.26373 5.95107C5.65596 6.61157 4.61697 8.15326 4.61679 9.87864C4.61671 10.5446 4.3551 11.1707 3.8802 11.6417C2.64972 12.862 2.28484 14.6805 2.95069 16.2746C3.20769 16.8899 3.20769 17.5676 2.95069 18.1828C2.28484 19.7771 2.64972 21.5955 3.8802 22.8157C4.3551 23.2866 4.61671 23.9128 4.61679 24.5788C4.61697 25.9866 5.30889 27.2719 6.43697 28.0563L0.118745 38.9059C-0.0605066 39.2138 -0.0350637 39.5984 0.183194 39.8805C0.401452 40.1623 0.769264 40.2863 1.11598 40.1943L6.8398 38.6737L8.37355 44.3485C8.46636 44.6919 8.75865 44.946 9.11413 44.9924C9.15296 44.9975 9.1917 44.9999 9.23009 44.9999C9.54374 44.9999 9.83788 44.8347 9.99754 44.5605L16.0137 34.2294C16.4571 34.3794 16.9227 34.4572 17.3924 34.4571C17.9454 34.4571 18.504 34.3506 19.0375 34.1315C19.6582 33.8768 20.3418 33.8768 20.9623 34.1315C21.9491 34.5366 23.0209 34.5563 23.9863 34.2295L30.0025 44.5605C30.1621 44.8348 30.4563 45 30.7699 45C30.8084 45 30.8471 44.9975 30.8859 44.9924C31.2414 44.9461 31.5336 44.6919 31.6265 44.3486L33.1602 38.6738L38.884 40.1944C39.2305 40.2862 39.5985 40.1625 39.8168 39.8806C40.0351 39.5984 40.0605 39.2138 39.8813 38.9059ZM9.53221 41.844L8.32302 37.37C8.19624 36.9011 7.71053 36.6225 7.23722 36.7485L2.72437 37.9474L7.9685 28.942C8.25138 29.1898 8.4762 29.4998 8.62496 29.8557C9.29117 31.4497 10.8461 32.4797 12.5864 32.4798C13.2581 32.4799 13.8897 32.7392 14.3647 33.2101C14.406 33.251 14.4483 33.2902 14.4909 33.3291L9.53221 41.844ZM21.6407 32.5075C20.5828 32.0732 19.4174 32.0732 18.3593 32.5075C17.4162 32.8947 16.3402 32.6826 15.6184 31.9671C14.8085 31.1643 13.7319 30.7221 12.5866 30.722C11.5658 30.7219 10.6537 30.1177 10.263 29.1826C9.82458 28.1337 9.00048 27.3168 7.94261 26.8822C6.99955 26.4948 6.39007 25.5905 6.38999 24.5784C6.38981 23.443 5.94381 22.3755 5.13416 21.5728C4.41237 20.857 4.19836 19.7903 4.58896 18.8553C5.02707 17.8062 5.02707 16.651 4.58896 15.6019C4.19836 14.6668 4.41237 13.6002 5.13416 12.8844C5.94381 12.0816 6.38981 11.0142 6.38999 9.87873C6.39007 8.86667 6.99955 7.96236 7.94261 7.57494C9.00057 7.14049 9.82458 6.32346 10.263 5.27449C10.6537 4.33951 11.5658 3.73526 12.5866 3.73517C13.7318 3.73509 14.8084 3.29291 15.6183 2.4902C16.1007 2.01208 16.741 1.75869 17.3943 1.75869C17.7187 1.75869 18.0463 1.82118 18.3593 1.94967C19.4173 2.38394 20.5827 2.38394 21.6407 1.94967C22.5839 1.56252 23.6598 1.77468 24.3816 2.49011C25.1915 3.29291 26.2681 3.73509 27.4133 3.73517C28.4342 3.73526 29.3463 4.33951 29.737 5.27458C30.1754 6.32346 30.9995 7.14041 32.0574 7.57494C33.0005 7.96236 33.6099 8.86667 33.61 9.87873C33.6102 11.0142 34.0562 12.0816 34.8658 12.8844C35.5876 13.6002 35.8016 14.6668 35.411 15.6019C34.9729 16.651 34.9729 17.8062 35.411 18.8553C35.8016 19.7903 35.5876 20.857 34.8658 21.5728C34.0562 22.3755 33.6102 23.443 33.61 24.5784C33.6099 25.5905 33.0005 26.4948 32.0574 26.8822C30.9994 27.3168 30.1754 28.1337 29.737 29.1827C29.3463 30.1177 28.4342 30.7219 27.4134 30.722C26.2682 30.7221 25.1916 31.1643 24.3817 31.9671C23.6599 32.6827 22.5841 32.8949 21.6407 32.5075ZM32.7628 36.7484C32.2898 36.6227 31.8037 36.901 31.677 37.3699L30.4678 41.8439L25.5095 33.3295C25.552 33.2906 25.594 33.2508 25.6353 33.2099C26.1103 32.7391 26.7419 32.4797 27.4136 32.4796C29.154 32.4795 30.7089 31.4494 31.3751 29.8554C31.5239 29.4995 31.7487 29.1896 32.0316 28.9419L37.2757 37.9472L32.7628 36.7484Z" fill="#8DC73F"/>
<path d="M24.9569 12.6561C24.7918 12.4163 24.5178 12.273 24.225 12.273H15.7751C15.4823 12.273 15.2083 12.4164 15.0432 12.6561L12.9307 15.721C12.6901 16.07 12.7343 16.5394 13.0358 16.8383L19.3732 23.1215C19.5395 23.2863 19.765 23.3789 20.0001 23.3789C20.2352 23.3789 20.4607 23.2863 20.6269 23.1215L26.9644 16.8383C27.2659 16.5394 27.3101 16.07 27.0695 15.721L24.9569 12.6561ZM20 21.257L14.8093 16.1109L16.2429 14.0309H23.757L25.1906 16.1109L20 21.257Z" fill="#8DC73F"/>
<path d="M31.7913 19.2766C32.206 16.9189 31.903 14.5239 30.9151 12.3504C30.714 11.9078 30.1892 11.7106 29.7426 11.9101C29.2963 12.1096 29.0974 12.63 29.2986 13.0726C31.0291 16.8801 30.1899 21.4231 27.2102 24.3771C23.2344 28.3188 16.7654 28.3188 12.7897 24.3771C8.81388 20.4354 8.81388 14.0218 12.7897 10.0801C15.7693 7.12608 20.3513 6.29384 24.192 8.00956C24.6385 8.20889 25.1633 8.01175 25.3644 7.56931C25.5656 7.1267 25.3667 6.6063 24.9204 6.40687C22.7281 5.42733 20.3123 5.12701 17.9343 5.53825C15.5009 5.95898 13.2884 7.09963 11.536 8.83696C6.86897 13.4641 6.86897 20.9928 11.536 25.6199C13.8695 27.9334 16.9347 29.0901 20 29.0901C23.0653 29.0901 26.1305 27.9334 28.464 25.6199C30.2165 23.8827 31.367 21.6892 31.7913 19.2766Z" fill="#8DC73F"/>
<path d="M27.8376 10.3378C28.0708 10.3378 28.2986 10.2438 28.4644 10.0803C28.6293 9.91678 28.7232 9.69011 28.7232 9.45887C28.7232 9.22684 28.6293 9.00096 28.4644 8.83758C28.2986 8.67322 28.0708 8.57997 27.8376 8.57997C27.6036 8.57997 27.3757 8.67322 27.21 8.83758C27.0451 9.00096 26.9502 9.22693 26.9502 9.45887C26.9502 9.69011 27.0451 9.91678 27.21 10.0803C27.3757 10.2438 27.6036 10.3378 27.8376 10.3378Z" fill="#8DC73F"/>
</svg>
