<svg width="50" height="50" viewBox="0 0 50 50" fill="none" xmlns="http://www.w3.org/2000/svg">
<path d="M23.0467 40.2343C22.5076 40.2343 22.0701 40.6718 22.0701 41.2109C22.0701 41.7499 22.5076 42.1874 23.0467 42.1874C23.5858 42.1874 24.0233 41.7499 24.0233 41.2109C24.0233 40.6718 23.5858 40.2343 23.0467 40.2343Z" fill="#8DC73F"/>
<path d="M46.0933 22.0703H40.4166L45.8732 15.6214C46.9355 16.0972 48.2483 15.9132 49.1412 15.0178C50.2863 13.8728 50.2863 12.0199 49.1412 10.875L43.616 5.34965C42.4815 4.218 40.6339 4.19378 39.4741 5.35063C38.5923 6.23247 38.392 7.54108 38.8719 8.61755L22.9733 22.0703H3.90625C1.75234 22.0703 0 23.8226 0 25.9766C0 27.612 1.01797 29.0693 2.54053 29.6278C2.59912 36.8974 7.36328 43.2517 14.2577 45.3637V47.0703C14.2577 48.6857 15.572 50 17.1874 50H32.8122C34.4277 50 35.7419 48.6857 35.7419 47.0703V45.3637C42.6363 43.2514 47.4005 36.8973 47.4591 29.6277C48.9817 29.0694 49.9996 27.612 49.9996 25.9766C49.9995 23.8226 48.2472 22.0703 46.0933 22.0703ZM40.8543 6.73257C41.2408 6.34712 41.8555 6.3523 42.2359 6.7316L47.7601 12.2561C48.1366 12.6326 48.1472 13.2495 47.7591 13.6376C47.3795 14.0184 46.76 14.0183 46.3805 13.6376C46.3803 13.6374 46.3802 13.6373 46.38 13.6371C46.3798 13.6369 46.3797 13.6368 46.3795 13.6366L40.8552 8.11227C40.8551 8.11217 40.855 8.11217 40.855 8.11208C40.4746 7.73141 40.4747 7.11217 40.8543 6.73257ZM40.1096 10.1287L44.3633 14.3824L37.8581 22.0703H25.9967L40.1096 10.1287ZM33.7888 47.0704C33.7888 47.6089 33.3507 48.0469 32.8122 48.0469H17.1873C16.6488 48.0469 16.2108 47.6088 16.2108 47.0703V45.8338C17.1744 46.0052 18.1552 46.0938 19.1404 46.0938H30.8591C31.8444 46.0938 32.8251 46.0053 33.7888 45.8338V47.0704ZM34.5221 43.6792C33.3319 43.9854 32.0994 44.1407 30.8591 44.1407H19.1404C17.9001 44.1407 16.6677 43.9854 15.4774 43.6792C9.13585 42.0485 4.66934 36.3983 4.49737 29.873H45.5024C45.3302 36.3983 40.8637 42.0485 34.5221 43.6792ZM46.7515 27.8073C46.7433 27.8102 46.7351 27.8131 46.727 27.8161C46.5174 27.8947 46.322 27.9298 46.0933 27.9298H3.90625C2.8794 27.9298 1.95313 27.0975 1.95313 25.9767C1.95313 24.8997 2.8293 24.0235 3.90625 24.0235H46.0934C47.1703 24.0234 48.0465 24.8997 48.0465 25.9766C48.0464 26.8045 47.526 27.5403 46.7515 27.8073Z" fill="#8DC73F"/>
<path d="M19.1404 40.2344C14.6005 40.2344 10.5304 37.3562 9.01221 33.0723C8.83194 32.5639 8.27354 32.298 7.76553 32.4781C7.25713 32.6581 6.99112 33.2163 7.17129 33.7247C8.96514 38.7865 13.7751 42.1875 19.1404 42.1875C19.6797 42.1875 20.117 41.7503 20.117 41.211C20.117 40.6716 19.6797 40.2344 19.1404 40.2344Z" fill="#8DC73F"/>
<path d="M23.7372 15.911L22.0701 14.244V10.7423C22.0701 4.81898 17.2512 0 11.328 0H7.42178C6.88252 0 6.44522 0.437211 6.44522 0.97657V4.88285C6.44522 10.806 11.2642 15.625 17.1873 15.625H20.689L22.3561 17.2921C22.7375 17.6735 23.3557 17.6735 23.7372 17.2921C24.1186 16.9108 24.1186 16.2924 23.7372 15.911ZM20.117 12.2907L12.0186 4.19222C11.6371 3.81087 11.019 3.81087 10.6374 4.19222C10.2561 4.57357 10.2561 5.19194 10.6374 5.57338L18.7358 13.6719H17.1873C12.341 13.6719 8.39834 9.72908 8.39834 4.88285V1.95314H11.328C16.1743 1.95314 20.117 5.89594 20.117 10.7422V12.2907Z" fill="#8DC73F"/>
<path d="M26.9528 0C25.3374 0 24.0232 1.31427 24.0232 2.92971C24.0232 4.54515 25.3374 5.85942 26.9528 5.85942C28.5683 5.85942 29.8825 4.54515 29.8825 2.92971C29.8825 1.31427 28.5683 0 26.9528 0ZM26.9528 3.90628C26.4144 3.90628 25.9763 3.46819 25.9763 2.92971C25.9763 2.39123 26.4144 1.95314 26.9528 1.95314C27.4913 1.95314 27.9294 2.39123 27.9294 2.92971C27.9294 3.46819 27.4913 3.90628 26.9528 3.90628Z" fill="#8DC73F"/>
</svg>
