<svg width="38" height="38" viewBox="0 0 38 38" fill="none" xmlns="http://www.w3.org/2000/svg">
<path d="M35.4023 0C34.9801 0 3.19178 0 2.59766 0C1.16531 0 0 1.16531 0 2.59766V35.4023C0 36.8347 1.16531 38 2.59766 38H35.4023C36.8347 38 38 36.8347 38 35.4023V2.59766C38 1.16531 36.8347 0 35.4023 0ZM22.4883 2.22656V7.73983C22.4883 8.02973 22.1726 8.20904 21.9233 8.05622L20.3575 7.09657C19.5202 6.58343 18.4799 6.58335 17.6426 7.09657L16.0767 8.0563C15.83 8.20755 15.5117 8.03255 15.5117 7.7399V2.22656H22.4883ZM35.7734 35.4023C35.7734 35.607 35.607 35.7734 35.4023 35.7734H2.59766C2.39304 35.7734 2.22656 35.607 2.22656 35.4023V2.59766C2.22656 2.39304 2.39304 2.22656 2.59766 2.22656H13.2852V7.73983C13.2852 9.77075 15.5077 11.0164 17.2403 9.95459L18.8061 8.99487C18.9258 8.92154 19.0744 8.92154 19.194 8.99487L20.7599 9.95459C22.4917 11.016 24.715 9.77149 24.715 7.73983V2.22656H35.4025C35.6071 2.22656 35.7736 2.39304 35.7736 2.59766V35.4023H35.7734Z" fill="#006428"/>
<path d="M30.9589 15.2373H7.04106C5.60871 15.2373 4.4434 16.4026 4.4434 17.8349V28.275C4.4434 29.7074 5.60871 30.8727 7.04106 30.8727H30.9589C32.3913 30.8727 33.5566 29.7074 33.5566 28.275V17.8349C33.5566 16.4026 32.3913 15.2373 30.9589 15.2373ZM31.33 28.275C31.33 28.4797 31.1636 28.6461 30.9589 28.6461H7.04106C6.83644 28.6461 6.66997 28.4797 6.66997 28.275V17.8349C6.66997 17.6303 6.83644 17.4638 7.04106 17.4638H30.9589C31.1636 17.4638 31.33 17.6303 31.33 17.8349V28.275Z" fill="#006428"/>
<path d="M27.7083 19.7151H10.2917C9.67686 19.7151 9.17841 20.2136 9.17841 20.8284C9.17841 21.4432 9.67686 21.9417 10.2917 21.9417H27.7084C28.3232 21.9417 28.8217 21.4432 28.8217 20.8284C28.8217 20.2136 28.3232 19.7151 27.7083 19.7151Z" fill="#006428"/>
<path d="M27.7083 24.1682H10.2917C9.67686 24.1682 9.17841 24.6667 9.17841 25.2815C9.17841 25.8963 9.67686 26.3948 10.2917 26.3948H27.7084C28.3232 26.3948 28.8217 25.8963 28.8217 25.2815C28.8217 24.6667 28.3232 24.1682 27.7083 24.1682Z" fill="#006428"/>
</svg>
