<svg width="47" height="39" viewBox="0 0 47 39" fill="none" xmlns="http://www.w3.org/2000/svg">
<path d="M40.1152 20.6164H35.5146C34.8884 20.6164 34.2822 20.702 33.7052 20.8594C32.5671 18.6205 30.2436 17.0822 27.5661 17.0822H19.4339C16.7564 17.0822 14.4329 18.6205 13.2948 20.8594C12.7178 20.702 12.1116 20.6164 11.4854 20.6164H6.88477C3.08851 20.6164 0 23.7071 0 27.5062V34.8661C0 37.1455 1.8531 39 4.13086 39H42.8691C45.1469 39 47 37.1455 47 34.8661V27.5062C47 23.7071 43.9115 20.6164 40.1152 20.6164ZM12.5491 23.9722V36.2442H4.13086C3.37161 36.2442 2.75391 35.626 2.75391 34.8662V27.5063C2.75391 25.2268 4.60701 23.3724 6.88477 23.3724H11.4854C11.8592 23.3724 12.2212 23.4232 12.5658 23.5168C12.5559 23.6675 12.5491 23.8191 12.5491 23.9722ZM31.697 36.2442H15.303V23.9721C15.303 21.6927 17.1561 19.8382 19.4339 19.8382H27.5661C29.8439 19.8382 31.697 21.6927 31.697 23.9721V36.2442ZM44.2461 34.8662C44.2461 35.626 43.6284 36.2442 42.8691 36.2442H34.4509V23.9721C34.4509 23.8189 34.4441 23.6674 34.4342 23.5167C34.7788 23.4232 35.1408 23.3723 35.5146 23.3723H40.1152C42.393 23.3723 44.2461 25.2268 44.2461 27.5062V34.8662Z" fill="#006428"/>
<path d="M9.18519 7.60404C5.81175 7.60404 3.0673 10.3505 3.0673 13.7264C3.06721 17.1023 5.81175 19.8488 9.18519 19.8488C12.5585 19.8488 15.3031 17.1023 15.3031 13.7264C15.3031 10.3505 12.5586 7.60404 9.18519 7.60404ZM9.1851 17.0928C7.33016 17.0928 5.82112 15.5827 5.82112 13.7264C5.82112 11.8701 7.33016 10.36 9.1851 10.36C11.04 10.36 12.5491 11.8701 12.5491 13.7264C12.5491 15.5827 11.04 17.0928 9.1851 17.0928Z" fill="#006428"/>
<path d="M23.5 0C18.9931 0 15.3266 3.66923 15.3266 8.17938C15.3266 12.6895 18.9931 16.3588 23.5 16.3588C28.0069 16.3588 31.6734 12.6895 31.6734 8.17938C31.6734 3.66932 28.0069 0 23.5 0ZM23.5 13.6028C20.5116 13.6028 18.0805 11.1699 18.0805 8.17938C18.0805 5.18893 20.5116 2.75592 23.5 2.75592C26.4884 2.75592 28.9195 5.18884 28.9195 8.17938C28.9195 11.1699 26.4884 13.6028 23.5 13.6028Z" fill="#006428"/>
<path d="M37.8148 7.60404C34.4415 7.60404 31.6969 10.3505 31.6969 13.7264C31.697 17.1023 34.4415 19.8488 37.8148 19.8488C41.1882 19.8488 43.9327 17.1023 43.9327 13.7264C43.9327 10.3505 41.1882 7.60404 37.8148 7.60404ZM37.8148 17.0928C35.96 17.0928 34.4508 15.5827 34.4508 13.7264C34.4509 11.8701 35.96 10.36 37.8148 10.36C39.6697 10.36 41.1788 11.8701 41.1788 13.7264C41.1788 15.5827 39.6697 17.0928 37.8148 17.0928Z" fill="#006428"/>
</svg>
