<svg width="53" height="47" viewBox="0 0 53 47" fill="none" xmlns="http://www.w3.org/2000/svg">
<path d="M26.4995 7.4095C27.0711 7.4095 27.5347 6.94179 27.5347 6.36503V1.04447C27.5347 0.467716 27.0712 0 26.4995 0C25.9278 0 25.4644 0.467611 25.4644 1.04447V6.36503C25.4645 6.94179 25.9279 7.4095 26.4995 7.4095Z" fill="#006428"/>
<path d="M18.7169 9.12526C18.9137 9.44038 19.2498 9.61293 19.5936 9.61293C19.7822 9.61293 19.9732 9.56091 20.1445 9.45197C20.6281 9.14448 20.773 8.49952 20.4683 8.01143L17.7102 3.59592C17.4054 3.10794 16.7661 2.96161 16.2826 3.26921C15.799 3.5767 15.6541 4.22166 15.9588 4.70974L18.7169 9.12526Z" fill="#006428"/>
<path d="M32.858 9.45229C33.0293 9.56102 33.22 9.61293 33.4084 9.61293C33.7523 9.61293 34.0886 9.44017 34.2854 9.12484L37.0406 4.70933C37.3451 4.22114 37.1999 3.57639 36.7161 3.26889C36.232 2.96171 35.5932 3.10836 35.2886 3.59634L32.5334 8.01185C32.2289 8.50014 32.3742 9.1449 32.858 9.45229Z" fill="#006428"/>
<path d="M52.6663 24.5896L50.8677 21.3836C50.5859 20.8814 49.9543 20.7049 49.4571 20.9892C48.9595 21.2734 48.7845 21.9107 49.0662 22.4125L50.864 25.6172C50.954 25.7783 50.9306 25.9336 50.9087 26.0118C50.8876 26.0871 50.8294 26.2261 50.6772 26.3109L47.9053 27.8602C47.659 27.9975 47.3376 27.9108 47.2033 27.6718L46.4991 26.4149C46.4962 26.4092 46.4929 26.404 46.4899 26.3985L39.2097 13.4058C39.1197 13.2459 39.1425 13.0926 39.164 13.0154C39.1848 12.9407 39.2426 12.8028 39.3947 12.7178L42.17 11.1683C42.4194 11.0289 42.7329 11.1135 42.8692 11.3573L44.4917 14.2498C44.7734 14.7518 45.4052 14.9283 45.9025 14.6443C46.4001 14.3602 46.575 13.7228 46.2934 13.2209L44.6717 10.3296C43.98 9.09236 42.4084 8.64856 41.1681 9.34032L38.3929 10.8899C37.7924 11.2248 37.3586 11.7782 37.1714 12.4487C36.9948 13.0808 37.058 13.7407 37.3471 14.3198L35.8184 14.7669C35.1672 14.957 34.7719 15.0601 34.5526 15.0601C34.5517 15.0601 34.5508 15.0601 34.55 15.0601C34.399 15.0595 34.2343 15.0014 33.7642 14.8217C33.551 14.7403 33.2855 14.6387 32.9591 14.5238L30.2506 13.5685C28.7526 13.0406 28.077 13.069 27.0981 13.1591L22.4797 13.5762C20.3743 13.7644 19.032 14.2436 18.291 15.0747L15.659 14.3052C15.9423 13.7286 16.003 13.075 15.8281 12.4487C15.6409 11.7786 15.2074 11.2253 14.6075 10.8904L11.8339 9.34011C10.5926 8.64773 9.02008 9.09173 8.32829 10.3287L0.336475 24.5882C-0.00564417 25.196 -0.0903199 25.9029 0.0982854 26.5787C0.285649 27.2499 0.719379 27.8039 1.31873 28.1384L4.09233 29.6885C4.4889 29.9097 4.91973 30.0148 5.34487 30.0148C6.24804 30.0148 7.12606 29.5407 7.59799 28.7L7.89104 28.1769C8.6908 28.5321 9.3623 29.0482 9.81995 29.6592C9.37297 30.1863 9.0914 30.8367 9.01242 31.5441C8.90808 32.4796 9.16997 33.3975 9.74987 34.1292C10.3248 34.8545 11.1469 35.3122 12.0662 35.42C11.9689 36.3476 12.2319 37.2565 12.8073 37.98C13.4021 38.7304 14.2428 39.1681 15.1221 39.2714C15.0252 40.1976 15.2872 41.1057 15.8609 41.8296C16.4355 42.5566 17.2578 43.0152 18.1781 43.123C18.0807 44.0513 18.3436 44.9608 18.9191 45.6844C19.605 46.5496 20.6175 47.0001 21.6398 47C22.4029 47 23.1714 46.7489 23.813 46.2319L25.9804 44.482C26.1525 44.3434 26.3089 44.1902 26.4496 44.0251L27.6877 45.023C28.3279 45.5386 29.0946 45.789 29.8567 45.7889C30.8795 45.7888 31.8937 45.3378 32.5805 44.4717C32.9425 44.0151 33.1717 43.4939 33.2752 42.9559C33.6372 43.0823 34.0194 43.1476 34.409 43.1474C34.5397 43.1474 34.6711 43.1401 34.803 43.1254C35.7305 43.0215 36.5599 42.5613 37.1361 41.832C37.7126 41.1074 37.9756 40.1986 37.8783 39.2711C38.7571 39.1676 39.5982 38.73 40.1947 37.9799C40.7889 37.2303 41.0274 36.3074 40.934 35.4198C41.8528 35.3118 42.6745 34.8542 43.2481 34.1305C43.8284 33.4008 44.0915 32.4843 43.9887 31.5495C43.9106 30.8399 43.6288 30.1873 43.181 29.6588C43.6373 29.048 44.3075 28.5313 45.1078 28.1763L45.4014 28.7004C45.8731 29.5408 46.7507 30.0147 47.654 30.0147C48.0794 30.0145 48.5106 29.9095 48.9076 29.688L51.6797 28.1387C52.2788 27.8044 52.7123 27.2513 52.9004 26.5813C53.0901 25.906 53.0071 25.1991 52.6663 24.5896ZM5.79619 27.6713C5.66162 27.9111 5.34 27.9976 5.09477 27.8606L2.32128 26.3106C2.16984 26.226 2.11208 26.0875 2.09096 26.0124C2.06932 25.9346 2.04624 25.7801 2.13754 25.6182L10.1306 11.3559C10.2221 11.1923 10.3946 11.1006 10.5736 11.1006C10.6608 11.1006 10.7494 11.1222 10.8312 11.1678L13.604 12.7176C13.6043 12.7178 13.6046 12.718 13.6049 12.7181C13.7566 12.8029 13.8143 12.9408 13.8352 13.0155C13.8567 13.0927 13.8795 13.246 13.7885 13.4077L5.79619 27.6713ZM13.3501 33.0461C13.0582 33.2821 12.6896 33.3887 12.3129 33.3464C11.936 33.3042 11.6001 33.1189 11.3668 32.8246C11.1329 32.5295 11.0276 32.1577 11.0699 31.7777C11.112 31.3993 11.2958 31.062 11.5891 30.8265L15.4645 27.7008C16.0728 27.2109 16.9631 27.3117 17.4492 27.9242C17.683 28.2191 17.7885 28.5903 17.7462 28.9691C17.7042 29.3467 17.5204 29.6837 17.2287 29.9178C17.2222 29.9229 17.2168 29.9287 17.2105 29.934L13.3511 33.0454C13.3508 33.0456 13.3504 33.0459 13.3501 33.0461ZM14.423 36.674C14.1893 36.3802 14.0838 36.0099 14.1255 35.6314C14.1672 35.2526 14.3511 34.9138 14.6433 34.6774L14.6436 34.6772C14.6438 34.6771 14.644 34.6769 14.6442 34.6768C14.6443 34.6768 14.6443 34.6767 14.6444 34.6766L20.2266 30.1765C20.8347 29.6865 21.7253 29.7865 22.2113 30.4C22.4447 30.6944 22.5502 31.0652 22.5085 31.4439C22.4666 31.823 22.2822 32.1619 21.9893 32.3979L16.4086 36.8963C15.7997 37.3866 14.9095 37.2876 14.423 36.674ZM18.4247 41.0493C18.0479 41.0071 17.7123 40.8216 17.4786 40.526C17.2452 40.2316 17.1397 39.8608 17.1815 39.4821C17.2233 39.1032 17.4074 38.7647 17.6999 38.5287C17.7001 38.5285 17.7004 38.5283 17.7006 38.5281L21.5636 35.4143C21.5681 35.4107 21.5731 35.4077 21.5777 35.404C22.1843 34.9141 23.0745 35.0138 23.561 35.6257C23.7949 35.9206 23.9003 36.2925 23.858 36.6724C23.8158 37.0509 23.632 37.3881 23.3388 37.6236L19.4635 40.7492C19.1706 40.9852 18.8016 41.0913 18.4247 41.0493ZM25.2068 41.8972C25.1649 42.2761 24.9809 42.6141 24.688 42.8502L22.5205 44.6004C21.9115 45.0908 21.0213 44.9921 20.5349 44.3784C20.3013 44.0848 20.1956 43.7142 20.2373 43.3349C20.2791 42.9557 20.4628 42.6174 20.7544 42.3824C20.7547 42.3822 20.7551 42.3819 20.7554 42.3816L22.9224 40.6338C22.9236 40.6329 22.9248 40.6322 22.9259 40.6313C23.5343 40.1415 24.4246 40.2418 24.9108 40.8547C25.1436 41.1486 25.2488 41.5187 25.2068 41.8972ZM41.6324 32.8245C41.3991 33.1188 41.0631 33.3042 40.6863 33.3464C40.3098 33.3891 39.941 33.2822 39.6491 33.0461C39.649 33.046 39.6488 33.0459 39.6486 33.0458C39.6485 33.0457 39.6483 33.0456 39.6482 33.0455L36.8783 30.8125C36.4315 30.4524 35.7802 30.5259 35.4235 30.9765C35.0667 31.4271 35.1394 32.0844 35.586 32.4444L38.3549 34.6767C38.9624 35.1675 39.0625 36.064 38.579 36.6739C38.0913 37.2872 37.2009 37.387 36.5931 36.8958L33.5886 34.4765C33.1418 34.1168 32.4905 34.1907 32.1339 34.6415C31.7773 35.0923 31.8504 35.7494 32.2973 36.1093L35.3004 38.5273C35.593 38.7638 35.7772 39.1028 35.819 39.4821C35.8607 39.8606 35.7551 40.231 35.5195 40.5271C35.2867 40.8216 34.9511 41.007 34.5744 41.0493C34.1973 41.0912 33.8283 40.985 33.5366 40.7501L32.0416 39.5437C32.039 39.5416 32.0368 39.5394 32.0342 39.5373L30.535 38.3279C30.0883 37.9676 29.437 38.0408 29.08 38.4912C29.0354 38.5476 28.9974 38.6071 28.9662 38.669C28.8163 38.9645 28.8188 39.3112 28.9595 39.6019C29.0246 39.7365 29.1183 39.8594 29.2419 39.9592L30.7451 41.1721C31.3485 41.6638 31.4471 42.5573 30.964 43.1668C30.4778 43.78 29.5874 43.8802 28.9794 43.3908L27.274 42.0161C27.345 41.1221 27.0825 40.2503 26.5273 39.5498C26.1821 39.1145 25.7541 38.7849 25.284 38.5638C25.6285 38.0815 25.8473 37.515 25.9152 36.9059C26.0195 35.9704 25.7576 35.0526 25.1767 34.3197C24.8315 33.8856 24.4039 33.5567 23.9348 33.3361C24.2799 32.8524 24.4987 32.2847 24.5659 31.6747C24.6689 30.7414 24.4068 29.8253 23.828 29.0949C22.832 27.8384 21.1475 27.4564 19.7456 28.0568C19.6334 27.5368 19.4041 27.0464 19.0656 26.6193C17.8671 25.1081 15.6724 24.8609 14.1724 26.0685L11.4006 28.304C10.7738 27.4969 9.92181 26.8276 8.91439 26.3503L14.6159 16.1749L17.6516 17.0624C17.6655 17.2263 17.6918 17.3986 17.7358 17.5812C18.4706 20.6298 21.2525 22.0503 24.9959 21.2892C28.1501 20.6488 29.4486 21.6028 32.0347 23.503C32.303 23.7001 32.5818 23.9049 32.8736 24.1158C34.7334 25.4621 36.7209 27.0446 38.0535 28.1171L41.4136 30.8267C41.7055 31.0617 41.8893 31.4001 41.931 31.7797C41.9727 32.159 41.8671 32.5295 41.6324 32.8245ZM41.6003 28.3034L39.3454 26.4851C37.9944 25.3977 35.9788 23.793 34.0798 22.4183C33.7921 22.2103 33.5177 22.0086 33.2535 21.8146C30.5718 19.8442 28.6337 18.4206 24.5875 19.2416C23.349 19.4934 20.3984 19.7879 19.7476 17.0881C19.6559 16.707 19.7491 16.576 19.7887 16.5201C19.9271 16.3254 20.484 15.8516 22.6629 15.6569L27.2862 15.2394C28.0396 15.1701 28.4175 15.1352 29.5674 15.5404L32.2762 16.4959C32.5773 16.602 32.8181 16.6939 33.0306 16.7752C34.3349 17.2737 34.6805 17.2736 36.394 16.7732L38.3911 16.1894L44.0849 26.3509C43.0772 26.828 42.226 27.4967 41.6003 28.3034Z" fill="#006428"/>
<path d="M47.6762 18.8625C48.2478 18.8625 48.7114 18.3933 48.7114 17.8164C48.7114 17.2396 48.2478 16.772 47.6762 16.772C47.1046 16.772 46.641 17.2397 46.641 17.8164V17.8194C46.641 18.3962 47.1046 18.8625 47.6762 18.8625Z" fill="#006428"/>
</svg>
