<svg width="39" height="42" viewBox="0 0 39 42" fill="none" xmlns="http://www.w3.org/2000/svg">
<path d="M38.9963 19.9589C39.2122 9.23305 29.9791 -0.218466 19.498 0.00384448C2.18983 0.0216557 -6.51431 21.5336 5.71109 34.0694C11.3009 39.9368 20.411 41.5843 27.6375 38.096L38.6179 42L35.1676 31.8352C37.6748 28.3826 38.9963 24.2913 38.9963 19.9589ZM27.4851 35.423C16.2954 41.5897 2.3098 32.9882 2.41736 19.9586C2.4172 10.3196 10.0797 2.47747 19.4982 2.47747C34.0115 2.43789 41.9337 20.158 32.4518 31.3728L34.697 37.9871L27.4851 35.423Z" fill="#006428"/>
<path d="M23.2069 11.3801C21.8591 11.3801 20.5746 11.8028 19.4983 12.5868C17.0545 10.7475 13.3692 11.0548 11.2544 13.3028C10.0429 14.5425 9.37568 16.1909 9.37568 17.9442C9.37568 19.6976 10.0428 21.346 11.2543 22.5858L19.4982 31.0231L27.7421 22.5859C28.9536 21.3461 29.6207 19.6977 29.6207 17.9442C29.692 14.4161 26.6544 11.3071 23.2069 11.3801ZM26.033 20.8367L19.4983 27.5246L12.9635 20.8367C12.2086 20.0641 11.7929 19.0369 11.7929 17.9443C11.7486 15.7457 13.6413 13.8085 15.7897 13.854C16.8572 13.854 17.8608 14.2794 18.6157 15.052L19.4983 15.9554L20.381 15.052C21.8687 13.4652 24.5455 13.4651 26.0331 15.0521C27.5835 16.5744 27.5835 19.3142 26.033 20.8367Z" fill="#006428"/>
</svg>
